<svg xmlns="http://www.w3.org/2000/svg" width="42" height="42" viewBox="0 0 42 42" fill="none">
  <path d="M39.4105 21.1315C39.4105 19.6402 39.287 18.5519 39.0197 17.4234H21.6431V24.1544H31.8428C31.6372 25.8271 30.5268 28.3462 28.059 30.039L28.0244 30.2643L33.5186 34.4355L33.8993 34.4727C37.3951 31.3087 39.4105 26.6533 39.4105 21.1315Z" fill="#4285F4"/>
  <path d="M21.6419 38.8662C26.6389 38.8662 30.8339 37.2539 33.8981 34.4729L28.0579 30.0391C26.495 31.1072 24.3975 31.8529 21.6419 31.8529C16.7477 31.8529 12.5938 28.6889 11.1131 24.3157L10.896 24.3338L5.18311 28.6667L5.1084 28.8702C8.15185 34.7952 14.4033 38.8662 21.6419 38.8662Z" fill="#34A853"/>
  <path d="M11.114 24.3158C10.7233 23.1873 10.4972 21.978 10.4972 20.7286C10.4972 19.479 10.7233 18.2699 11.0935 17.1414L11.0831 16.901L5.29862 12.4985L5.10936 12.5868C3.85501 15.0454 3.13525 17.8064 3.13525 20.7286C3.13525 23.6507 3.85501 26.4116 5.10936 28.8703L11.114 24.3158Z" fill="#FBBC05"/>
  <path d="M21.642 9.60421C25.1173 9.60421 27.4616 11.0754 28.7983 12.3048L34.0216 7.30683C30.8137 4.38468 26.6391 2.59106 21.642 2.59106C14.4034 2.59106 8.15186 6.66191 5.1084 12.5868L11.0925 17.1414C12.5939 12.7682 16.7478 9.60421 21.642 9.60421Z" fill="#EB4335"/>
</svg>